<?xml version="1.0" encoding="iso-8859-1"?>
<!-- Generator: Adobe Illustrator 18.1.1, SVG Export Plug-In . SVG Version: 6.00 Build 0)  -->
<svg version="1.1" id="Capa_1" xmlns="http://www.w3.org/2000/svg" xmlns:xlink="http://www.w3.org/1999/xlink" x="0px" y="0px"
	 viewBox="0 0 15.975 15.975" style="enable-background:new 0 0 15.975 15.975;" xml:space="preserve">
<g>
	<g>
		<path style="fill:#010002;" d="M7.987,0C4.891,0,2.381,2.51,2.381,5.606c0,0.237,0.019,0.468,0.048,0.697
			c0.479,4.379,5.194,9.426,5.194,9.426c0.084,0.094,0.165,0.152,0.243,0.194l0.004,0.002l0.157,0.05l0.157-0.05l0.004-0.002
			c0.078-0.042,0.159-0.103,0.243-0.194c0,0,4.647-5.056,5.115-9.436c0.028-0.226,0.047-0.455,0.047-0.688
			C13.592,2.51,11.083,0,7.987,0z M7.987,9.212c-1.988,0-3.606-1.618-3.606-3.606S5.999,2,7.987,2s3.605,1.618,3.605,3.606
			S9.975,9.212,7.987,9.212z"/>
	</g>
</g>
<g>
</g>
<g>
</g>
<g>
</g>
<g>
</g>
<g>
</g>
<g>
</g>
<g>
</g>
<g>
</g>
<g>
</g>
<g>
</g>
<g>
</g>
<g>
</g>
<g>
</g>
<g>
</g>
<g>
</g>
</svg>
